<svg width="428" height="419" viewBox="0 0 428 419" fill="none" xmlns="http://www.w3.org/2000/svg">
<path d="M268.811 164.233C286.816 147.061 313.059 108.493 305.533 79.4719C291.571 25.6356 214.775 -7.9455 185.26 2.95431C191.507 4.59453 210.146 15.7619 228.712 32.4684C245.588 47.6544 247.979 80.3543 227.1 55.6871C219.79 47.0511 198.368 24.0516 182.768 17.4084C151.176 3.95506 118.497 3.77444 93.9203 20.1476C108.76 22.2512 137.026 27.4216 165.598 43.6429C201.313 63.9195 212.355 84.0669 211.238 85.7767C210.122 87.4865 211.598 85.5236 179.139 65.3405C127.39 33.1635 59.4198 21.7222 11.8797 70.2569C53.6711 51.7868 85.5798 63.2121 129.67 77.6645C151.304 84.756 188.288 107.375 182.928 110.988C177.568 114.601 172.626 110.561 155.766 103.005C138.907 95.4497 102.962 86.8189 80.2718 84.8054C30.281 80.3692 -19.9827 71.1158 -58.6909 150.08C-10.2442 115.789 48.8545 121.193 99.4162 127.957C110.129 129.39 175.446 144.538 169.651 161.059C166.171 170.982 137.037 158.602 128.591 156.541C120.145 154.481 81.2018 144.148 69.9258 142.068C58.6498 139.989 34.4549 134.96 2.36291 143.473C-29.729 151.986 -47.5126 167.609 -53.1041 173.51C-58.6955 179.411 -70.7449 199.795 -72.9734 216.023C-74.7562 229.006 -77.3517 242.636 -78.4266 247.829C-70.1959 238.773 -48.5034 218.859 -18.3991 206.812C19.2314 191.753 47.7781 189.357 61.1897 189.376C74.6012 189.394 95.1253 192.471 94.1883 200.192C93.2514 207.914 70.7732 214.899 59.7924 217.687C48.8117 220.475 23.0515 226.464 13.3639 229.69C3.6763 232.917 -23.8773 245.793 -42.1647 257.834C-60.452 269.875 -66.1297 282.196 -71.5574 302.839C-75.8996 319.353 -68.7201 357.718 -65.2647 364.921C-66.6788 354.512 -60.5333 340.096 -45.4857 327.154M268.811 164.233L282.293 165.111M268.811 164.233C268.758 154.238 275.91 120.079 273.602 101.172C270.717 77.5395 263.997 64.4064 255.67 51.0408M268.811 164.233C265.678 153.311 256.177 126.509 243.233 106.672C227.052 81.8763 206.353 58.1947 194.597 46.4518M268.811 164.233C265.504 164.542 261.057 165.209 255.608 166.312M268.811 164.233C315.493 180.4 365.571 257.136 345.706 304.237M-45.4857 327.154C2.68594 317.246 -33.7595 345.837 -13.4882 347.821C2.82287 349.417 20.8863 347.348 54.9774 319.814C75.7061 303.072 108.327 247.36 114.25 263.297C121.033 281.543 102.317 315.821 73.8558 342.819C38.817 376.055 -3.1686 375.805 -7.05776 376.923C-1.43152 377.82 34.9167 404.533 55.8437 404.619C71.5108 404.683 99.0545 402.905 127.074 371.61C155.094 340.314 166.944 293.849 170.083 281.062C172.595 270.832 173.872 241.326 174.197 227.852C175.659 221.422 180.395 211.736 187.641 224.436C196.698 240.311 181.285 301.795 170.244 329.341C157.642 360.779 125.763 400.302 93.9781 417.119C104.837 417.097 137.268 421.061 159.104 415.484C186.398 408.513 204.484 400.088 218.962 373.567C233.44 347.046 240.21 323.61 243.238 301.805C246.265 280.001 243.918 251.435 242.344 242.48C241.085 235.315 235.255 216.556 233.945 207.841C254.268 217.322 258.903 248.42 259.523 268.642C260.005 284.326 260.385 308.883 257.949 321.317C253.455 344.264 241.082 399.839 209.096 405.963C237.038 405.044 275.831 381.97 291.744 360.641C309.486 336.861 311.353 305.843 310.231 294.744C309.11 283.645 301.256 244.165 295.316 230.529C290.564 219.621 287.064 209.15 285.908 205.278C284.682 201.835 283.975 196.292 290.954 201.663C297.932 207.034 305.986 222.253 309.14 229.191C311.465 235.385 316.471 249.305 317.897 255.44C319.68 263.108 324.366 289.544 324.106 299.131C323.846 308.718 322.788 323.88 318.581 335.158C315.215 344.18 308.945 353.459 306.23 356.971C329 355.204 366.537 331.414 376.475 292.723C386.041 255.481 364.178 226.466 344.425 199.928C341.821 197.143 337.374 187.751 349.891 192.186C380.484 203.025 397.481 247.725 398.005 276.995C404.849 274.012 421.914 249.387 425.427 232.981C430.515 209.22 422.418 185.718 403.963 170.571M-45.4857 327.154C-31.8651 319.518 10.156 295.745 21.8902 288.612C34.4396 280.982 66.2063 271.275 103.818 232.118M282.293 165.111C294.44 157.393 306.967 151.753 316.969 148.529C326.972 145.305 346.119 145.005 368.072 150.806C380.171 154.003 393.694 162.143 403.963 170.571M282.293 165.111C301.157 167.743 391.564 177.84 402.165 214.351M282.293 165.111C306.653 162.067 359.276 156.729 374.882 159.725C390.487 162.72 400.772 168.204 403.963 170.571M239.524 170.143C246.869 179.128 262.907 202.289 268.301 223.048C275.043 248.997 284.432 293.139 282.279 323.035C280.556 346.952 274.123 361.477 271.122 365.75M239.524 170.143C245.561 168.515 250.951 167.254 255.608 166.312M239.524 170.143C235.081 171.341 230.288 172.739 225.178 174.355M204.634 181.468C209.108 187.845 217.165 211.197 213.609 253.592C209.163 306.585 200.868 331.859 189.987 356.258C181.282 375.777 172.081 388.672 168.569 392.679M204.634 181.468C211.93 178.731 218.8 176.373 225.178 174.355M204.634 181.468C195.057 185.06 184.744 189.306 173.848 194.291M152.567 204.629C146.836 207.576 140.986 210.717 135.034 214.063C123.537 220.527 113.175 226.538 103.818 232.118M152.567 204.629C153.453 214.88 149.319 242.176 138.941 277.463C125.702 322.475 120.38 328.584 102.439 357.871C91.2052 376.209 76.3045 383.908 69.272 386.038M152.567 204.629C159.868 200.875 166.974 197.436 173.848 194.291M255.608 166.312C244.385 149.723 217.089 113.379 197.694 100.712C173.449 84.8779 160.594 75.0595 140.13 66.9788M225.178 174.355C221.937 166.615 206.085 147.495 168.597 132.931C121.738 114.726 96.5287 108.831 54.2936 104.825C20.5055 101.621 2.65439 108.77 -2.04767 112.746M173.848 194.291C162.809 189.994 129.712 179.123 85.6318 170.009C41.552 160.896 -10.3906 178.235 -30.8519 188.043M103.818 232.118C79.4882 235.597 12.8831 257.931 -4.45777 268.232C-21.7986 278.534 -38.9554 292.519 -45.3662 298.224" stroke="black" stroke-linecap="round" stroke-linejoin="round"/>
</svg>
